<svg xmlns="http://www.w3.org/2000/svg" xmlns:xlink="http://www.w3.org/1999/xlink" width="500" zoomAndPan="magnify" viewBox="0 0 375 374.999991" height="500" preserveAspectRatio="xMidYMid meet" version="1.2"><defs/><g id="62ba84cd4a"><g style="fill:#ffffff;fill-opacity:1;"><g transform="translate(11.357298, 203.812487)"><path style="stroke:none" d="M 33.6875 -41.25 L 42.6875 -41.25 L 42.6875 0 L 33.34375 0 L 13.125 -27.359375 L 13.125 0 L 4.0625 0 L 4.0625 -41.25 L 13.40625 -41.25 L 33.6875 -13.953125 Z M 33.6875 -41.25 "/></g></g><g style="fill:#ffffff;fill-opacity:1;"><g transform="translate(60.592765, 203.812487)"><path style="stroke:none" d="M 38.21875 -36.09375 C 40.28125 -34.125 41.90625 -31.820312 43.09375 -29.1875 C 44.289062 -26.550781 44.890625 -23.695312 44.890625 -20.625 C 44.890625 -17.6875 44.335938 -14.945312 43.234375 -12.40625 C 42.140625 -9.863281 40.628906 -7.617188 38.703125 -5.671875 C 36.773438 -3.722656 34.53125 -2.195312 31.96875 -1.09375 C 29.40625 0 26.65625 0.546875 23.71875 0.546875 C 22.019531 0.546875 20.378906 0.351562 18.796875 -0.03125 C 17.222656 -0.425781 15.703125 -0.96875 14.234375 -1.65625 L 10.796875 3.296875 L 5.4375 0.140625 L 9.140625 -5.21875 C 7.128906 -7.144531 5.523438 -9.4375 4.328125 -12.09375 C 3.140625 -14.757812 2.546875 -17.601562 2.546875 -20.625 C 2.546875 -23.5625 3.09375 -26.300781 4.1875 -28.84375 C 5.289062 -31.382812 6.816406 -33.628906 8.765625 -35.578125 C 10.710938 -37.523438 12.957031 -39.046875 15.5 -40.140625 C 18.039062 -41.242188 20.78125 -41.796875 23.71875 -41.796875 C 27.113281 -41.796875 30.226562 -41.0625 33.0625 -39.59375 L 36.578125 -44.625 L 41.9375 -41.390625 Z M 11.484375 -20.625 C 11.484375 -17.550781 12.421875 -14.894531 14.296875 -12.65625 L 27.984375 -32.25 C 27.335938 -32.476562 26.660156 -32.648438 25.953125 -32.765625 C 25.242188 -32.878906 24.5 -32.9375 23.71875 -32.9375 C 21.425781 -32.9375 19.351562 -32.394531 17.5 -31.3125 C 15.644531 -30.238281 14.175781 -28.769531 13.09375 -26.90625 C 12.019531 -25.050781 11.484375 -22.957031 11.484375 -20.625 Z M 23.71875 -8.3125 C 26.050781 -8.3125 28.144531 -8.847656 30 -9.921875 C 31.863281 -11.003906 33.332031 -12.472656 34.40625 -14.328125 C 35.488281 -16.191406 36.03125 -18.289062 36.03125 -20.625 C 36.03125 -22.226562 35.773438 -23.71875 35.265625 -25.09375 C 34.765625 -26.46875 34.054688 -27.679688 33.140625 -28.734375 L 19.390625 -9.078125 C 20.804688 -8.566406 22.25 -8.3125 23.71875 -8.3125 Z M 23.71875 -8.3125 "/></g></g><g style="fill:#ffffff;fill-opacity:1;"><g transform="translate(110.515678, 203.812487)"><path style="stroke:none" d="M 25.578125 -16.984375 L 37.125 0 L 26.953125 0 L 16.78125 -15.953125 L 13.125 -15.953125 L 13.125 0 L 4.0625 0 L 4.0625 -41.25 L 21.59375 -41.25 C 23.96875 -41.25 26.070312 -40.6875 27.90625 -39.5625 C 29.738281 -38.4375 31.191406 -36.910156 32.265625 -34.984375 C 33.347656 -33.066406 33.890625 -30.9375 33.890625 -28.59375 C 33.890625 -25.800781 33.109375 -23.347656 31.546875 -21.234375 C 29.992188 -19.128906 28.003906 -17.710938 25.578125 -16.984375 Z M 20.21875 -23.4375 C 21.675781 -23.4375 22.875 -23.894531 23.8125 -24.8125 C 24.757812 -25.726562 25.234375 -26.898438 25.234375 -28.328125 C 25.234375 -29.742188 24.757812 -30.910156 23.8125 -31.828125 C 22.875 -32.742188 21.675781 -33.203125 20.21875 -33.203125 L 13.125 -33.203125 L 13.125 -23.4375 Z M 20.21875 -23.4375 "/></g></g><g style="fill:#ffffff;fill-opacity:1;"><g transform="translate(149.714346, 203.812487)"><path style="stroke:none" d="M 4.0625 0 L 4.0625 -41.25 L 17.671875 -41.25 C 20.515625 -41.25 23.179688 -40.707031 25.671875 -39.625 C 28.171875 -38.550781 30.359375 -37.070312 32.234375 -35.1875 C 34.117188 -33.3125 35.597656 -31.125 36.671875 -28.625 C 37.753906 -26.132812 38.296875 -23.46875 38.296875 -20.625 C 38.296875 -17.78125 37.753906 -15.109375 36.671875 -12.609375 C 35.597656 -10.117188 34.117188 -7.929688 32.234375 -6.046875 C 30.359375 -4.171875 28.171875 -2.691406 25.671875 -1.609375 C 23.179688 -0.535156 20.515625 0 17.671875 0 Z M 13.125 -8.046875 L 17.59375 -8.046875 C 19.800781 -8.046875 21.773438 -8.59375 23.515625 -9.6875 C 25.253906 -10.789062 26.640625 -12.289062 27.671875 -14.1875 C 28.703125 -16.09375 29.21875 -18.238281 29.21875 -20.625 C 29.21875 -23.007812 28.703125 -25.148438 27.671875 -27.046875 C 26.640625 -28.953125 25.253906 -30.453125 23.515625 -31.546875 C 21.773438 -32.648438 19.800781 -33.203125 17.59375 -33.203125 L 13.125 -33.203125 Z M 13.125 -8.046875 "/></g></g><g style="fill:#ffffff;fill-opacity:1;"><g transform="translate(192.968982, 203.812487)"><path style="stroke:none" d="M 47.921875 -41.25 L 57.46875 -41.25 L 46.203125 0 L 35.75 0 L 28.25 -29.015625 L 20.765625 0 L 10.3125 0 L -0.96875 -41.25 L 8.59375 -41.25 L 16.015625 -12.515625 L 23.859375 -41.25 L 32.65625 -41.25 L 40.5625 -12.65625 Z M 47.921875 -41.25 "/></g></g><g style="fill:#ffffff;fill-opacity:1;"><g transform="translate(251.897536, 203.812487)"><path style="stroke:none" d="M 29.28125 0 L 26.75 -7.765625 L 11.34375 -7.765625 L 8.796875 0 L -0.890625 0 L 13.953125 -41.25 L 24.125 -41.25 L 38.984375 0 Z M 13.75 -15.328125 L 24.34375 -15.328125 L 19.046875 -31.6875 Z M 13.75 -15.328125 "/></g></g><g style="fill:#ffffff;fill-opacity:1;"><g transform="translate(292.40234, 203.812487)"><path style="stroke:none" d="M 25.578125 -16.984375 L 37.125 0 L 26.953125 0 L 16.78125 -15.953125 L 13.125 -15.953125 L 13.125 0 L 4.0625 0 L 4.0625 -41.25 L 21.59375 -41.25 C 23.96875 -41.25 26.070312 -40.6875 27.90625 -39.5625 C 29.738281 -38.4375 31.191406 -36.910156 32.265625 -34.984375 C 33.347656 -33.066406 33.890625 -30.9375 33.890625 -28.59375 C 33.890625 -25.800781 33.109375 -23.347656 31.546875 -21.234375 C 29.992188 -19.128906 28.003906 -17.710938 25.578125 -16.984375 Z M 20.21875 -23.4375 C 21.675781 -23.4375 22.875 -23.894531 23.8125 -24.8125 C 24.757812 -25.726562 25.234375 -26.898438 25.234375 -28.328125 C 25.234375 -29.742188 24.757812 -30.910156 23.8125 -31.828125 C 22.875 -32.742188 21.675781 -33.203125 20.21875 -33.203125 L 13.125 -33.203125 L 13.125 -23.4375 Z M 20.21875 -23.4375 "/></g></g><g style="fill:#ffffff;fill-opacity:1;"><g transform="translate(331.601007, 203.812487)"><path style="stroke:none" d="M 29.21875 -33.28125 L 13.46875 -33.28125 L 13.46875 -24.609375 L 26.953125 -24.609375 L 26.953125 -16.640625 L 13.46875 -16.640625 L 13.46875 -7.96875 L 29.21875 -7.96875 L 29.21875 0 L 4.40625 0 L 4.40625 -41.25 L 29.21875 -41.25 Z M 29.21875 -33.28125 "/></g></g></g></svg>