<svg xmlns="http://www.w3.org/2000/svg" xmlns:xlink="http://www.w3.org/1999/xlink" width="490" zoomAndPan="magnify" viewBox="0 0 367.91998 240" height="310" preserveAspectRatio="xMidYMid meet" version="1.2"><defs><clipPath id="907b7dfa31"><path d="M 227 0.0273438 L 307.601562 0.0273438 L 307.601562 86 L 227 86 Z M 227 0.0273438 "/></clipPath><clipPath id="013963e231"><path d="M 60 0.0273438 L 140 0.0273438 L 140 86 L 60 86 Z M 60 0.0273438 "/></clipPath><clipPath id="b9bd71b893"><path d="M 124 98 L 243 98 L 243 151.875 L 124 151.875 Z M 124 98 "/></clipPath></defs><g id="56012bc4c5"><g clip-rule="nonzero" clip-path="url(#907b7dfa31)"><path style=" stroke:none;fill-rule:nonzero;fill:#105e8b;fill-opacity:1;" d="M 227.757812 60.140625 C 283.761719 40.691406 307.144531 0.0078125 307.144531 0.0078125 C 299.238281 39.203125 267.449219 70.828125 235.664062 85.632812 C 234.773438 76.378906 231.996094 67.726562 227.757812 60.140625 "/></g><g clip-rule="nonzero" clip-path="url(#013963e231)"><path style=" stroke:none;fill-rule:nonzero;fill:#105e8b;fill-opacity:1;" d="M 139.445312 60.140625 C 83.441406 40.691406 60.058594 0.0078125 60.058594 0.0078125 C 67.964844 39.203125 99.753906 70.828125 131.539062 85.632812 C 132.429688 76.378906 135.207031 67.726562 139.445312 60.140625 "/></g><path style=" stroke:none;fill-rule:nonzero;fill:#105e8b;fill-opacity:1;" d="M 189.152344 46.242188 C 189.152344 49.308594 186.667969 51.792969 183.601562 51.792969 C 180.535156 51.792969 178.050781 49.308594 178.050781 46.242188 C 178.050781 43.175781 180.535156 40.691406 183.601562 40.691406 C 186.667969 40.691406 189.152344 43.175781 189.152344 46.242188 "/><path style=" stroke:none;fill-rule:nonzero;fill:#105e8b;fill-opacity:1;" d="M 189.152344 66.019531 C 189.152344 69.085938 186.667969 71.570312 183.601562 71.570312 C 180.535156 71.570312 178.050781 69.085938 178.050781 66.019531 C 178.050781 62.953125 180.535156 60.46875 183.601562 60.46875 C 186.667969 60.46875 189.152344 62.953125 189.152344 66.019531 "/><path style=" stroke:none;fill-rule:nonzero;fill:#105e8b;fill-opacity:1;" d="M 189.152344 85.796875 C 189.152344 88.863281 186.667969 91.347656 183.601562 91.347656 C 180.535156 91.347656 178.050781 88.863281 178.050781 85.796875 C 178.050781 82.730469 180.535156 80.246094 183.601562 80.246094 C 186.667969 80.246094 189.152344 82.730469 189.152344 85.796875 "/><path style=" stroke:none;fill-rule:nonzero;fill:#105e8b;fill-opacity:1;" d="M 189.152344 105.574219 C 189.152344 108.640625 186.667969 111.125 183.601562 111.125 C 180.535156 111.125 178.050781 108.640625 178.050781 105.574219 C 178.050781 102.511719 180.535156 100.023438 183.601562 100.023438 C 186.667969 100.023438 189.152344 102.511719 189.152344 105.574219 "/><path style=" stroke:none;fill-rule:nonzero;fill:#105e8b;fill-opacity:1;" d="M 205.082031 54.679688 C 228.632812 65.78125 236.964844 92.113281 236.964844 92.113281 C 236.964844 63.402344 217.957031 39.542969 192.9375 34.722656 L 192.9375 117.097656 L 229.128906 96.5625 C 223.679688 69.058594 205.082031 54.679688 205.082031 54.679688 Z M 130.238281 92.113281 C 130.238281 92.113281 138.570312 65.78125 162.121094 54.679688 C 162.121094 54.679688 143.523438 69.058594 138.074219 96.5625 L 174.265625 117.097656 L 174.265625 34.722656 C 149.246094 39.542969 130.238281 63.402344 130.238281 92.113281 "/><g clip-rule="nonzero" clip-path="url(#b9bd71b893)"><path style=" stroke:none;fill-rule:nonzero;fill:#105e8b;fill-opacity:1;" d="M 232.664062 119.871094 C 229.597656 119.871094 227.113281 117.382812 227.113281 114.316406 C 227.113281 111.25 229.597656 108.765625 232.664062 108.765625 C 235.726562 108.765625 238.214844 111.25 238.214844 114.316406 C 238.214844 117.382812 235.726562 119.871094 232.664062 119.871094 Z M 213.824219 130.296875 C 210.757812 130.296875 208.273438 127.8125 208.273438 124.746094 C 208.273438 121.679688 210.757812 119.195312 213.824219 119.195312 C 216.890625 119.195312 219.375 121.679688 219.375 124.746094 C 219.375 127.8125 216.890625 130.296875 213.824219 130.296875 Z M 194.980469 140.726562 C 191.917969 140.726562 189.429688 138.242188 189.429688 135.175781 C 189.429688 132.109375 191.917969 129.625 194.980469 129.625 C 198.050781 129.625 200.53125 132.109375 200.53125 135.175781 C 200.53125 138.242188 198.050781 140.726562 194.980469 140.726562 Z M 172.222656 140.726562 C 169.152344 140.726562 166.671875 138.242188 166.671875 135.175781 C 166.671875 132.109375 169.152344 129.625 172.222656 129.625 C 175.285156 129.625 177.773438 132.109375 177.773438 135.175781 C 177.773438 138.242188 175.285156 140.726562 172.222656 140.726562 Z M 153.378906 130.296875 C 150.316406 130.296875 147.828125 127.8125 147.828125 124.746094 C 147.828125 121.679688 150.316406 119.195312 153.378906 119.195312 C 156.445312 119.195312 158.929688 121.679688 158.929688 124.746094 C 158.929688 127.8125 156.445312 130.296875 153.378906 130.296875 Z M 134.539062 119.871094 C 131.476562 119.871094 128.988281 117.382812 128.988281 114.316406 C 128.988281 111.25 131.476562 108.765625 134.539062 108.765625 C 137.605469 108.765625 140.089844 111.25 140.089844 114.316406 C 140.089844 117.382812 137.605469 119.871094 134.539062 119.871094 Z M 242.378906 98.664062 L 183.601562 132.011719 L 124.824219 98.664062 C 124.417969 101.726562 124.203125 114.949219 124.203125 118.140625 L 183.601562 151.84375 L 243 118.140625 C 243 114.949219 242.785156 101.726562 242.378906 98.664062 "/></g><g style="fill:#0a3650;fill-opacity:1;"><g transform="translate(7.065992, 213.28904)"><path style="stroke:none" d="M 33.78125 -41.375 L 42.8125 -41.375 L 42.8125 0 L 33.4375 0 L 13.171875 -27.4375 L 13.171875 0 L 4.0625 0 L 4.0625 -41.375 L 13.4375 -41.375 L 33.78125 -14 Z M 33.78125 -41.375 "/></g></g><g style="fill:#0a3650;fill-opacity:1;"><g transform="translate(56.441598, 213.28904)"><path style="stroke:none" d="M 38.328125 -36.203125 C 40.398438 -34.222656 42.03125 -31.910156 43.21875 -29.265625 C 44.414062 -26.617188 45.015625 -23.757812 45.015625 -20.6875 C 45.015625 -17.738281 44.460938 -14.988281 43.359375 -12.4375 C 42.265625 -9.894531 40.75 -7.644531 38.8125 -5.6875 C 36.882812 -3.738281 34.632812 -2.210938 32.0625 -1.109375 C 29.488281 -0.00390625 26.726562 0.546875 23.78125 0.546875 C 22.082031 0.546875 20.441406 0.351562 18.859375 -0.03125 C 17.273438 -0.425781 15.742188 -0.96875 14.265625 -1.65625 L 10.828125 3.3125 L 5.453125 0.140625 L 9.171875 -5.234375 C 7.148438 -7.171875 5.539062 -9.472656 4.34375 -12.140625 C 3.144531 -14.804688 2.546875 -17.65625 2.546875 -20.6875 C 2.546875 -23.625 3.097656 -26.367188 4.203125 -28.921875 C 5.304688 -31.472656 6.832031 -33.722656 8.78125 -35.671875 C 10.738281 -37.628906 12.992188 -39.160156 15.546875 -40.265625 C 18.097656 -41.367188 20.84375 -41.921875 23.78125 -41.921875 C 27.1875 -41.921875 30.3125 -41.1875 33.15625 -39.71875 L 36.671875 -44.75 L 42.0625 -41.5 Z M 11.515625 -20.6875 C 11.515625 -17.601562 12.457031 -14.9375 14.34375 -12.6875 L 28.0625 -32.328125 C 27.414062 -32.566406 26.734375 -32.742188 26.015625 -32.859375 C 25.304688 -32.972656 24.5625 -33.03125 23.78125 -33.03125 C 21.488281 -33.03125 19.410156 -32.488281 17.546875 -31.40625 C 15.679688 -30.320312 14.207031 -28.847656 13.125 -26.984375 C 12.050781 -25.128906 11.515625 -23.03125 11.515625 -20.6875 Z M 23.78125 -8.34375 C 26.125 -8.34375 28.226562 -8.878906 30.09375 -9.953125 C 31.957031 -11.035156 33.425781 -12.507812 34.5 -14.375 C 35.582031 -16.238281 36.125 -18.34375 36.125 -20.6875 C 36.125 -22.289062 35.867188 -23.78125 35.359375 -25.15625 C 34.859375 -26.539062 34.148438 -27.757812 33.234375 -28.8125 L 19.4375 -9.09375 C 20.863281 -8.59375 22.3125 -8.34375 23.78125 -8.34375 Z M 23.78125 -8.34375 "/></g></g><g style="fill:#0a3650;fill-opacity:1;"><g transform="translate(106.506609, 213.28904)"><path style="stroke:none" d="M 25.640625 -17.03125 L 37.234375 0 L 27.03125 0 L 16.828125 -16 L 13.171875 -16 L 13.171875 0 L 4.0625 0 L 4.0625 -41.375 L 21.65625 -41.375 C 24.039062 -41.375 26.148438 -40.804688 27.984375 -39.671875 C 29.828125 -38.546875 31.285156 -37.019531 32.359375 -35.09375 C 33.441406 -33.164062 33.984375 -31.03125 33.984375 -28.6875 C 33.984375 -25.875 33.203125 -23.410156 31.640625 -21.296875 C 30.078125 -19.179688 28.078125 -17.757812 25.640625 -17.03125 Z M 20.265625 -23.515625 C 21.734375 -23.515625 22.9375 -23.972656 23.875 -24.890625 C 24.820312 -25.804688 25.296875 -26.976562 25.296875 -28.40625 C 25.296875 -29.832031 24.820312 -31.003906 23.875 -31.921875 C 22.9375 -32.835938 21.734375 -33.296875 20.265625 -33.296875 L 13.171875 -33.296875 L 13.171875 -23.515625 Z M 20.265625 -23.515625 "/></g></g><g style="fill:#0a3650;fill-opacity:1;"><g transform="translate(145.816848, 213.28904)"><path style="stroke:none" d="M 4.0625 0 L 4.0625 -41.375 L 17.71875 -41.375 C 20.570312 -41.375 23.25 -40.832031 25.75 -39.75 C 28.257812 -38.664062 30.453125 -37.179688 32.328125 -35.296875 C 34.210938 -33.410156 35.695312 -31.210938 36.78125 -28.703125 C 37.863281 -26.203125 38.40625 -23.53125 38.40625 -20.6875 C 38.40625 -17.832031 37.863281 -15.148438 36.78125 -12.640625 C 35.695312 -10.140625 34.210938 -7.945312 32.328125 -6.0625 C 30.453125 -4.175781 28.257812 -2.691406 25.75 -1.609375 C 23.25 -0.535156 20.570312 0 17.71875 0 Z M 13.171875 -8.0625 L 17.65625 -8.0625 C 19.851562 -8.0625 21.828125 -8.613281 23.578125 -9.71875 C 25.328125 -10.820312 26.71875 -12.328125 27.75 -14.234375 C 28.78125 -16.140625 29.296875 -18.289062 29.296875 -20.6875 C 29.296875 -23.070312 28.78125 -25.21875 27.75 -27.125 C 26.71875 -29.03125 25.328125 -30.535156 23.578125 -31.640625 C 21.828125 -32.742188 19.851562 -33.296875 17.65625 -33.296875 L 13.171875 -33.296875 Z M 13.171875 -8.0625 "/></g></g><g style="fill:#0a3650;fill-opacity:1;"><g transform="translate(189.194601, 213.28904)"><path style="stroke:none" d="M 48.0625 -41.375 L 57.640625 -41.375 L 46.328125 0 L 35.859375 0 L 28.34375 -29.09375 L 20.828125 0 L 10.34375 0 L -0.96875 -41.375 L 8.625 -41.375 L 16.0625 -12.546875 L 23.921875 -41.375 L 32.75 -41.375 L 40.671875 -12.6875 Z M 48.0625 -41.375 "/></g></g><g style="fill:#0a3650;fill-opacity:1;"><g transform="translate(248.290886, 213.28904)"><path style="stroke:none" d="M 29.375 0 L 26.8125 -7.796875 L 11.375 -7.796875 L 8.828125 0 L -0.890625 0 L 14 -41.375 L 24.203125 -41.375 L 39.09375 0 Z M 13.796875 -15.375 L 24.40625 -15.375 L 19.09375 -31.78125 Z M 13.796875 -15.375 "/></g></g><g style="fill:#0a3650;fill-opacity:1;"><g transform="translate(288.91098, 213.28904)"><path style="stroke:none" d="M 25.640625 -17.03125 L 37.234375 0 L 27.03125 0 L 16.828125 -16 L 13.171875 -16 L 13.171875 0 L 4.0625 0 L 4.0625 -41.375 L 21.65625 -41.375 C 24.039062 -41.375 26.148438 -40.804688 27.984375 -39.671875 C 29.828125 -38.546875 31.285156 -37.019531 32.359375 -35.09375 C 33.441406 -33.164062 33.984375 -31.03125 33.984375 -28.6875 C 33.984375 -25.875 33.203125 -23.410156 31.640625 -21.296875 C 30.078125 -19.179688 28.078125 -17.757812 25.640625 -17.03125 Z M 20.265625 -23.515625 C 21.734375 -23.515625 22.9375 -23.972656 23.875 -24.890625 C 24.820312 -25.804688 25.296875 -26.976562 25.296875 -28.40625 C 25.296875 -29.832031 24.820312 -31.003906 23.875 -31.921875 C 22.9375 -32.835938 21.734375 -33.296875 20.265625 -33.296875 L 13.171875 -33.296875 L 13.171875 -23.515625 Z M 20.265625 -23.515625 "/></g></g><g style="fill:#0a3650;fill-opacity:1;"><g transform="translate(328.221219, 213.28904)"><path style="stroke:none" d="M 29.296875 -33.375 L 13.515625 -33.375 L 13.515625 -24.6875 L 27.03125 -24.6875 L 27.03125 -16.6875 L 13.515625 -16.6875 L 13.515625 -8 L 29.296875 -8 L 29.296875 0 L 4.40625 0 L 4.40625 -41.375 L 29.296875 -41.375 Z M 29.296875 -33.375 "/></g></g></g></svg>