<svg xmlns="http://www.w3.org/2000/svg" xmlns:xlink="http://www.w3.org/1999/xlink" width="490" zoomAndPan="magnify" viewBox="0 0 367.91998 240" height="310" preserveAspectRatio="xMidYMid meet" version="1.2"><defs><clipPath id="8efdda7cb5"><path d="M 227 2.539062 L 307.339844 2.539062 L 307.339844 89 L 227 89 Z M 227 2.539062 "/></clipPath><clipPath id="c023a2cff2"><path d="M 60 2.539062 L 140 2.539062 L 140 89 L 60 89 Z M 60 2.539062 "/></clipPath><clipPath id="0fddc37731"><path d="M 124 101 L 244 101 L 244 154.472656 L 124 154.472656 Z M 124 101 "/></clipPath></defs><g id="21b67a2d18"><g clip-rule="nonzero" clip-path="url(#8efdda7cb5)"><path style=" stroke:none;fill-rule:nonzero;fill:#f9f9f9;fill-opacity:1;" d="M 227.777344 62.664062 C 283.792969 43.210938 307.175781 2.523438 307.175781 2.523438 C 299.269531 41.726562 267.476562 73.355469 235.683594 88.160156 C 234.792969 78.90625 232.015625 70.253906 227.777344 62.664062 "/></g><g clip-rule="nonzero" clip-path="url(#c023a2cff2)"><path style=" stroke:none;fill-rule:nonzero;fill:#f9f9f9;fill-opacity:1;" d="M 139.453125 62.664062 C 83.4375 43.210938 60.050781 2.523438 60.050781 2.523438 C 67.957031 41.726562 99.75 73.355469 131.542969 88.160156 C 132.433594 78.90625 135.214844 70.253906 139.453125 62.664062 "/></g><path style=" stroke:none;fill-rule:nonzero;fill:#f9f9f9;fill-opacity:1;" d="M 189.167969 48.765625 C 189.167969 51.828125 186.679688 54.316406 183.613281 54.316406 C 180.546875 54.316406 178.0625 51.828125 178.0625 48.765625 C 178.0625 45.699219 180.546875 43.210938 183.613281 43.210938 C 186.679688 43.210938 189.167969 45.699219 189.167969 48.765625 "/><path style=" stroke:none;fill-rule:nonzero;fill:#f9f9f9;fill-opacity:1;" d="M 189.167969 68.546875 C 189.167969 71.609375 186.679688 74.097656 183.613281 74.097656 C 180.546875 74.097656 178.0625 71.609375 178.0625 68.546875 C 178.0625 65.480469 180.546875 62.992188 183.613281 62.992188 C 186.679688 62.992188 189.167969 65.480469 189.167969 68.546875 "/><path style=" stroke:none;fill-rule:nonzero;fill:#f9f9f9;fill-opacity:1;" d="M 189.167969 88.328125 C 189.167969 91.390625 186.679688 93.878906 183.613281 93.878906 C 180.546875 93.878906 178.0625 91.390625 178.0625 88.328125 C 178.0625 85.261719 180.546875 82.773438 183.613281 82.773438 C 186.679688 82.773438 189.167969 85.261719 189.167969 88.328125 "/><path style=" stroke:none;fill-rule:nonzero;fill:#f9f9f9;fill-opacity:1;" d="M 189.167969 108.109375 C 189.167969 111.171875 186.679688 113.660156 183.613281 113.660156 C 180.546875 113.660156 178.0625 111.171875 178.0625 108.109375 C 178.0625 105.042969 180.546875 102.554688 183.613281 102.554688 C 186.679688 102.554688 189.167969 105.042969 189.167969 108.109375 "/><path style=" stroke:none;fill-rule:nonzero;fill:#f9f9f9;fill-opacity:1;" d="M 205.097656 57.203125 C 228.652344 68.308594 236.988281 94.644531 236.988281 94.644531 C 236.988281 65.929688 217.976562 42.0625 192.953125 37.242188 L 192.953125 119.628906 L 229.148438 99.089844 C 223.699219 71.585938 205.097656 57.203125 205.097656 57.203125 Z M 130.242188 94.644531 C 130.242188 94.644531 138.574219 68.308594 162.128906 57.203125 C 162.128906 57.203125 143.53125 71.585938 138.078125 99.089844 L 174.277344 119.628906 L 174.277344 37.242188 C 149.253906 42.0625 130.242188 65.929688 130.242188 94.644531 "/><g clip-rule="nonzero" clip-path="url(#0fddc37731)"><path style=" stroke:none;fill-rule:nonzero;fill:#f9f9f9;fill-opacity:1;" d="M 232.683594 122.402344 C 229.617188 122.402344 227.132812 119.917969 227.132812 116.851562 C 227.132812 113.785156 229.617188 111.300781 232.683594 111.300781 C 235.75 111.300781 238.234375 113.785156 238.234375 116.851562 C 238.234375 119.917969 235.75 122.402344 232.683594 122.402344 Z M 213.839844 132.832031 C 210.773438 132.832031 208.289062 130.347656 208.289062 127.28125 C 208.289062 124.214844 210.773438 121.730469 213.839844 121.730469 C 216.90625 121.730469 219.394531 124.214844 219.394531 127.28125 C 219.394531 130.347656 216.90625 132.832031 213.839844 132.832031 Z M 194.996094 143.265625 C 191.929688 143.265625 189.445312 140.777344 189.445312 137.714844 C 189.445312 134.648438 191.929688 132.160156 194.996094 132.160156 C 198.0625 132.160156 200.546875 134.648438 200.546875 137.714844 C 200.546875 140.777344 198.0625 143.265625 194.996094 143.265625 Z M 172.230469 143.265625 C 169.164062 143.265625 166.679688 140.777344 166.679688 137.714844 C 166.679688 134.648438 169.164062 132.160156 172.230469 132.160156 C 175.296875 132.160156 177.785156 134.648438 177.785156 137.714844 C 177.785156 140.777344 175.296875 143.265625 172.230469 143.265625 Z M 153.386719 132.832031 C 150.320312 132.832031 147.835938 130.347656 147.835938 127.28125 C 147.835938 124.214844 150.320312 121.730469 153.386719 121.730469 C 156.457031 121.730469 158.941406 124.214844 158.941406 127.28125 C 158.941406 130.347656 156.457031 132.832031 153.386719 132.832031 Z M 134.542969 122.402344 C 131.480469 122.402344 128.992188 119.917969 128.992188 116.851562 C 128.992188 113.785156 131.480469 111.300781 134.542969 111.300781 C 137.609375 111.300781 140.097656 113.785156 140.097656 116.851562 C 140.097656 119.917969 137.609375 122.402344 134.542969 122.402344 Z M 242.398438 101.191406 L 183.613281 134.546875 L 124.828125 101.191406 C 124.421875 104.257812 124.207031 117.484375 124.207031 120.671875 L 183.613281 154.382812 L 243.023438 120.671875 C 243.023438 117.484375 242.808594 104.257812 242.398438 101.191406 "/></g><g style="fill:#ffffff;fill-opacity:1;"><g transform="translate(7.065992, 215.80322)"><path style="stroke:none" d="M 33.78125 -41.375 L 42.8125 -41.375 L 42.8125 0 L 33.4375 0 L 13.171875 -27.4375 L 13.171875 0 L 4.0625 0 L 4.0625 -41.375 L 13.4375 -41.375 L 33.78125 -14 Z M 33.78125 -41.375 "/></g></g><g style="fill:#ffffff;fill-opacity:1;"><g transform="translate(56.441598, 215.80322)"><path style="stroke:none" d="M 38.328125 -36.203125 C 40.398438 -34.222656 42.03125 -31.910156 43.21875 -29.265625 C 44.414062 -26.617188 45.015625 -23.757812 45.015625 -20.6875 C 45.015625 -17.738281 44.460938 -14.988281 43.359375 -12.4375 C 42.265625 -9.894531 40.75 -7.644531 38.8125 -5.6875 C 36.882812 -3.738281 34.632812 -2.210938 32.0625 -1.109375 C 29.488281 -0.00390625 26.726562 0.546875 23.78125 0.546875 C 22.082031 0.546875 20.441406 0.351562 18.859375 -0.03125 C 17.273438 -0.425781 15.742188 -0.96875 14.265625 -1.65625 L 10.828125 3.3125 L 5.453125 0.140625 L 9.171875 -5.234375 C 7.148438 -7.171875 5.539062 -9.472656 4.34375 -12.140625 C 3.144531 -14.804688 2.546875 -17.65625 2.546875 -20.6875 C 2.546875 -23.625 3.097656 -26.367188 4.203125 -28.921875 C 5.304688 -31.472656 6.832031 -33.722656 8.78125 -35.671875 C 10.738281 -37.628906 12.992188 -39.160156 15.546875 -40.265625 C 18.097656 -41.367188 20.84375 -41.921875 23.78125 -41.921875 C 27.1875 -41.921875 30.3125 -41.1875 33.15625 -39.71875 L 36.671875 -44.75 L 42.0625 -41.5 Z M 11.515625 -20.6875 C 11.515625 -17.601562 12.457031 -14.9375 14.34375 -12.6875 L 28.0625 -32.328125 C 27.414062 -32.566406 26.734375 -32.742188 26.015625 -32.859375 C 25.304688 -32.972656 24.5625 -33.03125 23.78125 -33.03125 C 21.488281 -33.03125 19.410156 -32.488281 17.546875 -31.40625 C 15.679688 -30.320312 14.207031 -28.847656 13.125 -26.984375 C 12.050781 -25.128906 11.515625 -23.03125 11.515625 -20.6875 Z M 23.78125 -8.34375 C 26.125 -8.34375 28.226562 -8.878906 30.09375 -9.953125 C 31.957031 -11.035156 33.425781 -12.507812 34.5 -14.375 C 35.582031 -16.238281 36.125 -18.34375 36.125 -20.6875 C 36.125 -22.289062 35.867188 -23.78125 35.359375 -25.15625 C 34.859375 -26.539062 34.148438 -27.757812 33.234375 -28.8125 L 19.4375 -9.09375 C 20.863281 -8.59375 22.3125 -8.34375 23.78125 -8.34375 Z M 23.78125 -8.34375 "/></g></g><g style="fill:#ffffff;fill-opacity:1;"><g transform="translate(106.506609, 215.80322)"><path style="stroke:none" d="M 25.640625 -17.03125 L 37.234375 0 L 27.03125 0 L 16.828125 -16 L 13.171875 -16 L 13.171875 0 L 4.0625 0 L 4.0625 -41.375 L 21.65625 -41.375 C 24.039062 -41.375 26.148438 -40.804688 27.984375 -39.671875 C 29.828125 -38.546875 31.285156 -37.019531 32.359375 -35.09375 C 33.441406 -33.164062 33.984375 -31.03125 33.984375 -28.6875 C 33.984375 -25.875 33.203125 -23.410156 31.640625 -21.296875 C 30.078125 -19.179688 28.078125 -17.757812 25.640625 -17.03125 Z M 20.265625 -23.515625 C 21.734375 -23.515625 22.9375 -23.972656 23.875 -24.890625 C 24.820312 -25.804688 25.296875 -26.976562 25.296875 -28.40625 C 25.296875 -29.832031 24.820312 -31.003906 23.875 -31.921875 C 22.9375 -32.835938 21.734375 -33.296875 20.265625 -33.296875 L 13.171875 -33.296875 L 13.171875 -23.515625 Z M 20.265625 -23.515625 "/></g></g><g style="fill:#ffffff;fill-opacity:1;"><g transform="translate(145.816848, 215.80322)"><path style="stroke:none" d="M 4.0625 0 L 4.0625 -41.375 L 17.71875 -41.375 C 20.570312 -41.375 23.25 -40.832031 25.75 -39.75 C 28.257812 -38.664062 30.453125 -37.179688 32.328125 -35.296875 C 34.210938 -33.410156 35.695312 -31.210938 36.78125 -28.703125 C 37.863281 -26.203125 38.40625 -23.53125 38.40625 -20.6875 C 38.40625 -17.832031 37.863281 -15.148438 36.78125 -12.640625 C 35.695312 -10.140625 34.210938 -7.945312 32.328125 -6.0625 C 30.453125 -4.175781 28.257812 -2.691406 25.75 -1.609375 C 23.25 -0.535156 20.570312 0 17.71875 0 Z M 13.171875 -8.0625 L 17.65625 -8.0625 C 19.851562 -8.0625 21.828125 -8.613281 23.578125 -9.71875 C 25.328125 -10.820312 26.71875 -12.328125 27.75 -14.234375 C 28.78125 -16.140625 29.296875 -18.289062 29.296875 -20.6875 C 29.296875 -23.070312 28.78125 -25.21875 27.75 -27.125 C 26.71875 -29.03125 25.328125 -30.535156 23.578125 -31.640625 C 21.828125 -32.742188 19.851562 -33.296875 17.65625 -33.296875 L 13.171875 -33.296875 Z M 13.171875 -8.0625 "/></g></g><g style="fill:#ffffff;fill-opacity:1;"><g transform="translate(189.194601, 215.80322)"><path style="stroke:none" d="M 48.0625 -41.375 L 57.640625 -41.375 L 46.328125 0 L 35.859375 0 L 28.34375 -29.09375 L 20.828125 0 L 10.34375 0 L -0.96875 -41.375 L 8.625 -41.375 L 16.0625 -12.546875 L 23.921875 -41.375 L 32.75 -41.375 L 40.671875 -12.6875 Z M 48.0625 -41.375 "/></g></g><g style="fill:#ffffff;fill-opacity:1;"><g transform="translate(248.290886, 215.80322)"><path style="stroke:none" d="M 29.375 0 L 26.8125 -7.796875 L 11.375 -7.796875 L 8.828125 0 L -0.890625 0 L 14 -41.375 L 24.203125 -41.375 L 39.09375 0 Z M 13.796875 -15.375 L 24.40625 -15.375 L 19.09375 -31.78125 Z M 13.796875 -15.375 "/></g></g><g style="fill:#ffffff;fill-opacity:1;"><g transform="translate(288.91098, 215.80322)"><path style="stroke:none" d="M 25.640625 -17.03125 L 37.234375 0 L 27.03125 0 L 16.828125 -16 L 13.171875 -16 L 13.171875 0 L 4.0625 0 L 4.0625 -41.375 L 21.65625 -41.375 C 24.039062 -41.375 26.148438 -40.804688 27.984375 -39.671875 C 29.828125 -38.546875 31.285156 -37.019531 32.359375 -35.09375 C 33.441406 -33.164062 33.984375 -31.03125 33.984375 -28.6875 C 33.984375 -25.875 33.203125 -23.410156 31.640625 -21.296875 C 30.078125 -19.179688 28.078125 -17.757812 25.640625 -17.03125 Z M 20.265625 -23.515625 C 21.734375 -23.515625 22.9375 -23.972656 23.875 -24.890625 C 24.820312 -25.804688 25.296875 -26.976562 25.296875 -28.40625 C 25.296875 -29.832031 24.820312 -31.003906 23.875 -31.921875 C 22.9375 -32.835938 21.734375 -33.296875 20.265625 -33.296875 L 13.171875 -33.296875 L 13.171875 -23.515625 Z M 20.265625 -23.515625 "/></g></g><g style="fill:#ffffff;fill-opacity:1;"><g transform="translate(328.221219, 215.80322)"><path style="stroke:none" d="M 29.296875 -33.375 L 13.515625 -33.375 L 13.515625 -24.6875 L 27.03125 -24.6875 L 27.03125 -16.6875 L 13.515625 -16.6875 L 13.515625 -8 L 29.296875 -8 L 29.296875 0 L 4.40625 0 L 4.40625 -41.375 L 29.296875 -41.375 Z M 29.296875 -33.375 "/></g></g></g></svg>