<svg xmlns="http://www.w3.org/2000/svg" xmlns:xlink="http://www.w3.org/1999/xlink" width="490" zoomAndPan="magnify" viewBox="0 0 367.91998 240" height="310" preserveAspectRatio="xMidYMid meet" version="1.2"><defs><clipPath id="e8f54dc121"><path d="M 249 3.5 L 367.421875 3.5 L 367.421875 131 L 249 131 Z M 249 3.5 "/></clipPath><clipPath id="6d5ecda6cd"><path d="M 0 3.5 L 119 3.5 L 119 131 L 0 131 Z M 0 3.5 "/></clipPath></defs><g id="fcf33b0a86"><g clip-rule="nonzero" clip-path="url(#e8f54dc121)"><path style=" stroke:none;fill-rule:nonzero;fill:#105e8b;fill-opacity:1;" d="M 249.28125 92.769531 C 332.453125 63.886719 367.175781 3.472656 367.175781 3.472656 C 355.4375 61.679688 308.230469 108.644531 261.023438 130.625 C 259.699219 116.886719 255.574219 104.035156 249.28125 92.769531 "/></g><g clip-rule="nonzero" clip-path="url(#6d5ecda6cd)"><path style=" stroke:none;fill-rule:nonzero;fill:#105e8b;fill-opacity:1;" d="M 118.136719 92.769531 C 34.96875 63.886719 0.246094 3.472656 0.246094 3.472656 C 11.984375 61.679688 59.191406 108.644531 106.394531 130.625 C 107.71875 116.886719 111.84375 104.035156 118.136719 92.769531 "/></g><path style=" stroke:none;fill-rule:nonzero;fill:#105e8b;fill-opacity:1;" d="M 191.953125 72.128906 C 191.953125 76.683594 188.261719 80.375 183.710938 80.375 C 179.15625 80.375 175.464844 76.683594 175.464844 72.128906 C 175.464844 67.578125 179.15625 63.886719 183.710938 63.886719 C 188.261719 63.886719 191.953125 67.578125 191.953125 72.128906 "/><path style=" stroke:none;fill-rule:nonzero;fill:#105e8b;fill-opacity:1;" d="M 191.953125 101.5 C 191.953125 106.054688 188.261719 109.746094 183.710938 109.746094 C 179.15625 109.746094 175.464844 106.054688 175.464844 101.5 C 175.464844 96.949219 179.15625 93.257812 183.710938 93.257812 C 188.261719 93.257812 191.953125 96.949219 191.953125 101.5 "/><path style=" stroke:none;fill-rule:nonzero;fill:#105e8b;fill-opacity:1;" d="M 191.953125 130.871094 C 191.953125 135.425781 188.261719 139.117188 183.710938 139.117188 C 179.15625 139.117188 175.464844 135.425781 175.464844 130.871094 C 175.464844 126.320312 179.15625 122.628906 183.710938 122.628906 C 188.261719 122.628906 191.953125 126.320312 191.953125 130.871094 "/><path style=" stroke:none;fill-rule:nonzero;fill:#105e8b;fill-opacity:1;" d="M 191.953125 160.242188 C 191.953125 164.796875 188.261719 168.488281 183.710938 168.488281 C 179.15625 168.488281 175.464844 164.796875 175.464844 160.242188 C 175.464844 155.691406 179.15625 152 183.710938 152 C 188.261719 152 191.953125 155.691406 191.953125 160.242188 "/><path style=" stroke:none;fill-rule:nonzero;fill:#105e8b;fill-opacity:1;" d="M 215.609375 84.664062 C 250.585938 101.152344 262.957031 140.253906 262.957031 140.253906 C 262.957031 97.617188 234.730469 62.183594 197.574219 55.023438 L 197.574219 177.351562 L 251.320312 146.855469 C 243.226562 106.015625 215.609375 84.664062 215.609375 84.664062 Z M 104.460938 140.253906 C 104.460938 140.253906 116.835938 101.152344 151.808594 84.664062 C 151.808594 84.664062 124.191406 106.015625 116.101562 146.855469 L 169.84375 177.351562 L 169.84375 55.023438 C 132.691406 62.183594 104.460938 97.617188 104.460938 140.253906 "/><path style=" stroke:none;fill-rule:nonzero;fill:#105e8b;fill-opacity:1;" d="M 256.566406 181.46875 C 252.015625 181.46875 248.324219 177.777344 248.324219 173.226562 C 248.324219 168.671875 252.015625 164.984375 256.566406 164.984375 C 261.121094 164.984375 264.8125 168.671875 264.8125 173.226562 C 264.8125 177.777344 261.121094 181.46875 256.566406 181.46875 Z M 228.589844 196.957031 C 224.035156 196.957031 220.347656 193.265625 220.347656 188.714844 C 220.347656 184.160156 224.035156 180.46875 228.589844 180.46875 C 233.144531 180.46875 236.835938 184.160156 236.835938 188.714844 C 236.835938 193.265625 233.144531 196.957031 228.589844 196.957031 Z M 200.609375 212.445312 C 196.058594 212.445312 192.367188 208.753906 192.367188 204.203125 C 192.367188 199.648438 196.058594 195.957031 200.609375 195.957031 C 205.164062 195.957031 208.855469 199.648438 208.855469 204.203125 C 208.855469 208.753906 205.164062 212.445312 200.609375 212.445312 Z M 166.808594 212.445312 C 162.253906 212.445312 158.566406 208.753906 158.566406 204.203125 C 158.566406 199.648438 162.253906 195.957031 166.808594 195.957031 C 171.363281 195.957031 175.054688 199.648438 175.054688 204.203125 C 175.054688 208.753906 171.363281 212.445312 166.808594 212.445312 Z M 138.828125 196.957031 C 134.277344 196.957031 130.585938 193.265625 130.585938 188.714844 C 130.585938 184.160156 134.277344 180.46875 138.828125 180.46875 C 143.382812 180.46875 147.074219 184.160156 147.074219 188.714844 C 147.074219 193.265625 143.382812 196.957031 138.828125 196.957031 Z M 110.851562 181.46875 C 106.300781 181.46875 102.609375 177.777344 102.609375 173.226562 C 102.609375 168.671875 106.300781 164.984375 110.851562 164.984375 C 115.402344 164.984375 119.09375 168.671875 119.09375 173.226562 C 119.09375 177.777344 115.402344 181.46875 110.851562 181.46875 Z M 270.996094 149.976562 L 183.710938 199.503906 L 96.425781 149.976562 C 95.820312 154.527344 95.5 174.167969 95.5 178.898438 L 183.710938 228.949219 L 271.917969 178.898438 C 271.917969 174.167969 271.601562 154.527344 270.996094 149.976562 "/></g></svg>